<svg xmlns="http://www.w3.org/2000/svg" width="300" height="300" viewBox="0 0 300 300">
  <defs>
    <linearGradient id="grad" x1="0%" y1="0%" x2="100%" y2="100%">
      <stop offset="0%" style="stop-color:#FFFFFF;stop-opacity:0.2" />
      <stop offset="100%" style="stop-color:#FFFFFF;stop-opacity:0.1" />
    </linearGradient>
  </defs>
  <circle cx="150" cy="150" r="120" fill="url(#grad)" />
  <path d="M150 70c-44.1 0-80 35.9-80 80s35.9 80 80 80 80-35.9 80-80-35.9-80-80-80zm0 140c-33.1 0-60-26.9-60-60s26.9-60 60-60 60 26.9 60 60-26.9 60-60 60z" fill="#FFFFFF"/>
  <path d="M150 110c-22.1 0-40 17.9-40 40s17.9 40 40 40 40-17.9 40-40-17.9-40-40-40zm0 60c-11 0-20-9-20-20s9-20 20-20 20 9 20 20-9 20-20 20z" fill="#FFFFFF"/>
  <path d="M150 90c-33.1 0-60 26.9-60 60h20c0-22.1 17.9-40 40-40v-20z" fill="#FFFFFF"/>
</svg> 